<svg width="348" height="102" viewBox="0 0 348 102" fill="none" xmlns="http://www.w3.org/2000/svg">
<path d="M26.2051 38.2692L29.0483 37.312L28.3606 35.2692H26.2051V38.2692ZM14.4039 38.2692V35.2692H12.2416L11.5578 37.3205L14.4039 38.2692ZM12.1603 45V48H14.3226L15.0063 45.9487L12.1603 45ZM5.00323 45L2.19171 43.9534L0.685352 48H5.00323V45ZM17.1635 12.3333V9.33334H15.0791L14.352 11.2867L17.1635 12.3333ZM23.4007 12.3333L26.2103 11.2817L25.481 9.33334H23.4007V12.3333ZM35.6282 45V48H39.9544L38.4378 43.9483L35.6282 45ZM28.4712 45L25.628 45.9572L26.3157 48H28.4712V45ZM16.2212 32.8173L13.3741 31.8718L12.0637 35.8173H16.2212V32.8173ZM24.3878 32.8173V35.8173H28.5598L27.2318 31.8624L24.3878 32.8173ZM20.2821 20.5897L23.126 19.6348L20.2664 11.1185L17.435 19.6442L20.2821 20.5897ZM26.2051 35.2692H14.4039V41.2692H26.2051V35.2692ZM11.5578 37.3205L9.31423 44.0513L15.0063 45.9487L17.2499 39.2179L11.5578 37.3205ZM12.1603 42H5.00323V48H12.1603V42ZM7.81475 46.0466L19.975 13.3799L14.352 11.2867L2.19171 43.9534L7.81475 46.0466ZM17.1635 15.3333H23.4007V9.33334H17.1635V15.3333ZM20.591 13.385L32.8186 46.0517L38.4378 43.9483L26.2103 11.2817L20.591 13.385ZM35.6282 42H28.4712V48H35.6282V42ZM31.3144 44.0428L29.0483 37.312L23.362 39.2264L25.628 45.9572L31.3144 44.0428ZM16.2212 35.8173H24.3878V29.8173H16.2212V35.8173ZM27.2318 31.8624L23.126 19.6348L17.4381 21.5447L21.5439 33.7723L27.2318 31.8624ZM17.435 19.6442L13.3741 31.8718L19.0683 33.7629L23.1292 21.5353L17.435 19.6442ZM63 12.3333H66V9.33334H63V12.3333ZM59.6346 42.3301L57.5955 40.1296L57.5882 40.1365L59.6346 42.3301ZM37.9616 34.0962H34.9616V34.1152L34.9618 34.1343L37.9616 34.0962ZM37.9616 12.3333V9.33334H34.9616V12.3333H37.9616ZM44.6923 12.3333H47.6923V9.33334H44.6923V12.3333ZM46.218 38.5833L44.1285 40.7361L44.1446 40.7517L44.1609 40.767L46.218 38.5833ZM56.2468 34.0737L59.2465 34.1188L59.2468 34.0963V34.0737H56.2468ZM56.2468 12.3333V9.33334H53.2468V12.3333H56.2468ZM60 12.3333V33.8494H66V12.3333H60ZM60 33.8494C60 36.7428 59.122 38.7151 57.5955 40.1297L61.6737 44.5306C64.6344 41.787 66 38.1055 66 33.8494H60ZM57.5882 40.1365C56.0539 41.5678 53.8091 42.4487 50.4808 42.4487V48.4487C54.9003 48.4487 58.7581 47.2506 61.6811 44.5238L57.5882 40.1365ZM50.4808 42.4487C47.2054 42.4487 44.96 41.5929 43.4011 40.19L39.3874 44.6498C42.3157 47.2853 46.128 48.4487 50.4808 48.4487V42.4487ZM43.4011 40.19C41.8865 38.8268 40.9975 36.9059 40.9613 34.058L34.9618 34.1343C35.0153 38.3462 36.4149 41.9745 39.3874 44.6498L43.4011 40.19ZM40.9616 34.0962V12.3333H34.9616V34.0962H40.9616ZM37.9616 15.3333H44.6923V9.33334H37.9616V15.3333ZM41.6923 12.3333V33.8942H47.6923V12.3333H41.6923ZM41.6923 33.8942C41.6923 36.4354 42.2899 38.9515 44.1285 40.7361L48.3074 36.4306C48.1119 36.2408 47.6923 35.6309 47.6923 33.8942H41.6923ZM44.1609 40.767C45.8912 42.397 48.126 43.0417 50.4808 43.0417V37.0417C49.2159 37.0417 48.6089 36.7141 48.275 36.3997L44.1609 40.767ZM50.4808 43.0417C52.8783 43.0417 55.2084 42.4036 56.9179 40.6342C58.6015 38.8917 59.2101 36.5378 59.2465 34.1188L53.2472 34.0286C53.2237 35.5883 52.8414 36.2184 52.6029 36.4652C52.3905 36.6851 51.8675 37.0417 50.4808 37.0417V43.0417ZM59.2468 34.0737V12.3333H53.2468V34.0737H59.2468ZM56.2468 15.3333H63V9.33334H56.2468V15.3333ZM93.109 17.7853V20.7853H96.109V17.7853H93.109ZM83.1026 17.7853V14.7853H80.1026V17.7853H83.1026ZM83.1026 45V48H86.1026V45H83.1026ZM76.3718 45H73.3718V48H76.3718V45ZM76.3718 17.7853H79.3718V14.7853H76.3718V17.7853ZM66.5 17.7853H63.5V20.7853H66.5V17.7853ZM66.5 12.3333V9.33334H63.5V12.3333H66.5ZM93.109 12.3333H96.109V9.33334H93.109V12.3333ZM93.109 14.7853H83.1026V20.7853H93.109V14.7853ZM80.1026 17.7853V45H86.1026V17.7853H80.1026ZM83.1026 42H76.3718V48H83.1026V42ZM79.3718 45V17.7853H73.3718V45H79.3718ZM76.3718 14.7853H66.5V20.7853H76.3718V14.7853ZM69.5 17.7853V12.3333H63.5V17.7853H69.5ZM66.5 15.3333H93.109V9.33334H66.5V15.3333ZM90.109 12.3333V17.7853H96.109V12.3333H90.109ZM116.622 30.8429V33.8429H119.622V30.8429H116.622ZM103.699 30.8429V27.8429H100.699V30.8429H103.699ZM103.699 39.5929H100.699V42.5929H103.699V39.5929ZM118.865 39.5929H121.865V36.5929H118.865V39.5929ZM118.865 45V48H121.865V45H118.865ZM96.968 45H93.968V48H96.968V45ZM96.968 12.3333V9.33334H93.968V12.3333H96.968ZM118.821 12.3333H121.821V9.33334H118.821V12.3333ZM118.821 17.7853V20.7853H121.821V17.7853H118.821ZM103.699 17.7853V14.7853H100.699V17.7853H103.699ZM103.699 25.5705H100.699V28.5705H103.699V25.5705ZM116.622 25.5705H119.622V22.5705H116.622V25.5705ZM116.622 27.8429H103.699V33.8429H116.622V27.8429ZM100.699 30.8429V39.5929H106.699V30.8429H100.699ZM103.699 42.5929H118.865V36.5929H103.699V42.5929ZM115.865 39.5929V45H121.865V39.5929H115.865ZM118.865 42H96.968V48H118.865V42ZM99.968 45V12.3333H93.968V45H99.968ZM96.968 15.3333H118.821V9.33334H96.968V15.3333ZM115.821 12.3333V17.7853H121.821V12.3333H115.821ZM118.821 14.7853H103.699V20.7853H118.821V14.7853ZM100.699 17.7853V25.5705H106.699V17.7853H100.699ZM103.699 28.5705H116.622V22.5705H103.699V28.5705ZM113.622 25.5705V30.8429H119.622V25.5705H113.622ZM149.378 45V48H152.378V45H149.378ZM142.647 45L140.086 46.5615L140.963 48H142.647V45ZM129.545 23.5064L132.106 21.9449L126.545 12.8216V23.5064H129.545ZM129.545 45V48H132.545V45H129.545ZM122.814 45H119.814V48H122.814V45ZM122.814 12.3333V9.33334H119.814V12.3333H122.814ZM129.545 12.3333L132.107 10.7722L131.23 9.33334H129.545V12.3333ZM142.67 33.8718L140.108 35.4329L145.67 44.56V33.8718H142.67ZM142.67 12.3333V9.33334H139.67V12.3333H142.67ZM149.378 12.3333H152.378V9.33334H149.378V12.3333ZM149.378 42H142.647V48H149.378V42ZM145.209 43.4385L132.106 21.9449L126.983 25.0679L140.086 46.5615L145.209 43.4385ZM126.545 23.5064V45H132.545V23.5064H126.545ZM129.545 42H122.814V48H129.545V42ZM125.814 45V12.3333H119.814V45H125.814ZM122.814 15.3333H129.545V9.33334H122.814V15.3333ZM126.983 13.8944L140.108 35.4329L145.232 32.3107L132.107 10.7722L126.983 13.8944ZM145.67 33.8718V12.3333H139.67V33.8718H145.67ZM142.67 15.3333H149.378V9.33334H142.67V15.3333ZM146.378 12.3333V45H152.378V12.3333H146.378ZM179.173 17.7853V20.7853H182.173V17.7853H179.173ZM169.167 17.7853V14.7853H166.167V17.7853H169.167ZM169.167 45V48H172.167V45H169.167ZM162.436 45H159.436V48H162.436V45ZM162.436 17.7853H165.436V14.7853H162.436V17.7853ZM152.564 17.7853H149.564V20.7853H152.564V17.7853ZM152.564 12.3333V9.33334H149.564V12.3333H152.564ZM179.173 12.3333H182.173V9.33334H179.173V12.3333ZM179.173 14.7853H169.167V20.7853H179.173V14.7853ZM166.167 17.7853V45H172.167V17.7853H166.167ZM169.167 42H162.436V48H169.167V42ZM165.436 45V17.7853H159.436V45H165.436ZM162.436 14.7853H152.564V20.7853H162.436V14.7853ZM155.564 17.7853V12.3333H149.564V17.7853H155.564ZM152.564 15.3333H179.173V9.33334H152.564V15.3333ZM176.173 12.3333V17.7853H182.173V12.3333H176.173ZM190.189 45V48H193.189V45H190.189ZM183.458 45H180.458V48H183.458V45ZM183.458 12.3333V9.33334H180.458V12.3333H183.458ZM190.189 12.3333H193.189V9.33334H190.189V12.3333ZM190.189 42H183.458V48H190.189V42ZM186.458 45V12.3333H180.458V45H186.458ZM183.458 15.3333H190.189V9.33334H183.458V15.3333ZM187.189 12.3333V45H193.189V12.3333H187.189ZM222.093 34.1186L225.085 34.335L225.318 31.1186H222.093V34.1186ZM218.189 42.4199L216.233 40.1452L216.226 40.1514L218.189 42.4199ZM199.051 41.2308L196.762 43.1691L196.767 43.1757L196.773 43.1821L199.051 41.2308ZM201.856 13.8141L203.437 16.3633L203.442 16.3602L201.856 13.8141ZM222.138 23.4167V26.4167H225.447L225.123 23.123L222.138 23.4167ZM215.407 23.4167L212.416 23.65L212.632 26.4167H215.407V23.4167ZM213.635 18.8397L211.562 21.0091L211.579 21.0249L211.596 21.0404L213.635 18.8397ZM203.987 19.8269L201.523 18.1157L201.52 18.1205L203.987 19.8269ZM202.282 27.2981L199.282 27.2715L199.282 27.2848V27.2981H202.282ZM203.875 37.5064L201.361 39.1438L201.367 39.1519L201.372 39.1599L203.875 37.5064ZM213.59 38.5385L215.629 40.7391L215.63 40.738L213.59 38.5385ZM215.362 34.1186V31.1186H212.579L212.371 33.8937L215.362 34.1186ZM219.101 33.9021C218.895 36.7401 217.891 38.72 216.233 40.1452L220.145 44.6946C223.184 42.0812 224.782 38.527 225.085 34.335L219.101 33.9021ZM216.226 40.1514C214.56 41.593 212.234 42.4487 208.946 42.4487V48.4487C213.316 48.4487 217.151 47.2852 220.152 44.6884L216.226 40.1514ZM208.946 42.4487C205.505 42.4487 203.089 41.334 201.33 39.2794L196.773 43.1821C199.829 46.7515 204.01 48.4487 208.946 48.4487V42.4487ZM201.341 39.2924C199.539 37.1633 198.462 34.0556 198.462 29.609H192.462C192.462 35.0042 193.778 39.6444 196.762 43.1691L201.341 39.2924ZM198.462 29.609V27.6122H192.462V29.609H198.462ZM198.462 27.6122C198.462 24.824 198.952 22.5004 199.845 20.5702L194.399 18.0516C193.078 20.9077 192.462 24.1183 192.462 27.6122H198.462ZM199.845 20.5702C200.729 18.6575 201.933 17.2967 203.437 16.3633L200.274 11.2649C197.68 12.8742 195.728 15.1779 194.399 18.0516L199.845 20.5702ZM203.442 16.3602C204.975 15.4049 206.805 14.8846 209.035 14.8846V8.88462C205.821 8.88462 202.865 9.65061 200.269 11.268L203.442 16.3602ZM209.035 14.8846C212.251 14.8846 214.529 15.7336 216.167 17.1694L220.122 12.6575C217.153 10.0549 213.357 8.88462 209.035 8.88462V14.8846ZM216.167 17.1694C217.788 18.5903 218.852 20.6605 219.152 23.7103L225.123 23.123C224.705 18.8737 223.108 15.2751 220.122 12.6575L216.167 17.1694ZM222.138 20.4167H215.407V26.4167H222.138V20.4167ZM218.398 23.1833C218.205 20.7057 217.473 18.3064 215.673 16.6391L211.596 21.0404C211.83 21.2577 212.28 21.9096 212.416 23.65L218.398 23.1833ZM215.707 16.6704C213.926 14.9691 211.499 14.4038 209.035 14.4038V20.4038C210.699 20.4038 211.339 20.7959 211.562 21.0091L215.707 16.6704ZM209.035 14.4038C205.969 14.4038 203.291 15.5698 201.523 18.1157L206.451 21.5381C206.927 20.8533 207.614 20.4038 209.035 20.4038V14.4038ZM201.52 18.1205C199.901 20.4606 199.314 23.6821 199.282 27.2715L205.282 27.3246C205.31 24.1534 205.859 22.3941 206.455 21.5334L201.52 18.1205ZM199.282 27.2981V29.766H205.282V27.2981H199.282ZM199.282 29.766C199.282 33.4686 199.815 36.7702 201.361 39.1438L206.389 35.869C205.811 34.9819 205.282 33.1233 205.282 29.766H199.282ZM201.372 39.1599C203.11 41.7913 205.843 42.9519 208.946 42.9519V36.9519C207.441 36.9519 206.794 36.4822 206.378 35.8529L201.372 39.1599ZM208.946 42.9519C211.412 42.9519 213.835 42.4006 215.629 40.7391L211.551 36.3378C211.31 36.5609 210.638 36.9519 208.946 36.9519V42.9519ZM215.63 40.738C217.411 39.0856 218.171 36.7729 218.354 34.3435L212.371 33.8937C212.254 35.4429 211.832 36.0768 211.55 36.3389L215.63 40.738ZM215.362 37.1186H222.093V31.1186H215.362V37.1186ZM244.955 38.2692L247.798 37.312L247.111 35.2692H244.955V38.2692ZM233.154 38.2692V35.2692H230.992L230.308 37.3205L233.154 38.2692ZM230.91 45V48H233.073L233.756 45.9487L230.91 45ZM223.753 45L220.942 43.9534L219.435 48H223.753V45ZM235.913 12.3333V9.33334H233.829L233.102 11.2867L235.913 12.3333ZM242.151 12.3333L244.96 11.2817L244.231 9.33334H242.151V12.3333ZM254.378 45V48H258.704L257.188 43.9483L254.378 45ZM247.221 45L244.378 45.9572L245.066 48H247.221V45ZM234.971 32.8173L232.124 31.8718L230.814 35.8173H234.971V32.8173ZM243.138 32.8173V35.8173H247.31L245.982 31.8624L243.138 32.8173ZM239.032 20.5897L241.876 19.6348L239.016 11.1185L236.185 19.6442L239.032 20.5897ZM244.955 35.2692H233.154V41.2692H244.955V35.2692ZM230.308 37.3205L228.064 44.0513L233.756 45.9487L236 39.2179L230.308 37.3205ZM230.91 42H223.753V48H230.91V42ZM226.565 46.0466L238.725 13.3799L233.102 11.2867L220.942 43.9534L226.565 46.0466ZM235.913 15.3333H242.151V9.33334H235.913V15.3333ZM239.341 13.385L251.569 46.0517L257.188 43.9483L244.96 11.2817L239.341 13.385ZM254.378 42H247.221V48H254.378V42ZM250.064 44.0428L247.798 37.312L242.112 39.2264L244.378 45.9572L250.064 44.0428ZM234.971 35.8173H243.138V29.8173H234.971V35.8173ZM245.982 31.8624L241.876 19.6348L236.188 21.5447L240.294 33.7723L245.982 31.8624ZM236.185 19.6442L232.124 31.8718L237.818 33.7629L241.879 21.5353L236.185 19.6442ZM282.58 34.1186L285.572 34.335L285.805 31.1186H282.58V34.1186ZM278.676 42.4199L276.72 40.1452L276.713 40.1514L278.676 42.4199ZM259.538 41.2308L257.249 43.1691L257.254 43.1757L257.26 43.1821L259.538 41.2308ZM262.343 13.8141L263.925 16.3633L263.93 16.3602L262.343 13.8141ZM282.625 23.4167V26.4167H285.935L285.611 23.123L282.625 23.4167ZM275.894 23.4167L272.903 23.65L273.119 26.4167H275.894V23.4167ZM274.122 18.8397L272.05 21.0091L272.066 21.0249L272.083 21.0404L274.122 18.8397ZM264.474 19.8269L262.01 18.1157L262.007 18.1205L264.474 19.8269ZM262.769 27.2981L259.769 27.2715L259.769 27.2848V27.2981H262.769ZM264.362 37.5064L261.848 39.1438L261.854 39.1519L261.859 39.1599L264.362 37.5064ZM274.077 38.5385L276.116 40.7391L276.117 40.738L274.077 38.5385ZM275.849 34.1186V31.1186H273.066L272.858 33.8937L275.849 34.1186ZM271.901 44.8654L274.848 45.4244L275.523 41.8654H271.901V44.8654ZM271.654 46.1667L268.706 45.6077L268.142 48.5828L271.122 49.1192L271.654 46.1667ZM272.955 53.9519L271.242 51.4892L271.236 51.4936L271.229 51.498L272.955 53.9519ZM267.189 55.3878L264.192 55.5135L264.312 58.3878H267.189V55.3878ZM267.032 51.641V48.641H263.904L264.035 51.7667L267.032 51.641ZM268.782 48.5224L270.059 45.808L270.042 45.7995L270.023 45.7913L268.782 48.5224ZM266.359 48.0737L263.427 47.4381L262.691 50.8358L266.159 51.0671L266.359 48.0737ZM267.054 44.8654V41.8654H264.635L264.123 44.2298L267.054 44.8654ZM279.588 33.9021C279.383 36.7401 278.378 38.72 276.72 40.1452L280.632 44.6946C283.671 42.0812 285.269 38.527 285.572 34.335L279.588 33.9021ZM276.713 40.1514C275.047 41.593 272.721 42.4487 269.433 42.4487V48.4487C273.803 48.4487 277.639 47.2852 280.639 44.6884L276.713 40.1514ZM269.433 42.4487C265.992 42.4487 263.577 41.334 261.817 39.2794L257.26 43.1821C260.317 46.7515 264.497 48.4487 269.433 48.4487V42.4487ZM261.828 39.2924C260.026 37.1633 258.949 34.0556 258.949 29.609H252.949C252.949 35.0042 254.265 39.6444 257.249 43.1691L261.828 39.2924ZM258.949 29.609V27.6122H252.949V29.609H258.949ZM258.949 27.6122C258.949 24.824 259.439 22.5004 260.332 20.5702L254.886 18.0516C253.565 20.9077 252.949 24.1183 252.949 27.6122H258.949ZM260.332 20.5702C261.216 18.6575 262.42 17.2967 263.925 16.3633L260.761 11.2649C258.167 12.8742 256.215 15.1779 254.886 18.0516L260.332 20.5702ZM263.93 16.3602C265.462 15.4049 267.292 14.8846 269.522 14.8846V8.88462C266.308 8.88462 263.352 9.65061 260.756 11.268L263.93 16.3602ZM269.522 14.8846C272.739 14.8846 275.016 15.7336 276.654 17.1694L280.609 12.6575C277.64 10.0549 273.845 8.88462 269.522 8.88462V14.8846ZM276.654 17.1694C278.275 18.5903 279.339 20.6605 279.639 23.7103L285.611 23.123C285.193 18.8737 283.595 15.2751 280.609 12.6575L276.654 17.1694ZM282.625 20.4167H275.894V26.4167H282.625V20.4167ZM278.885 23.1833C278.692 20.7057 277.96 18.3064 276.161 16.6391L272.083 21.0404C272.317 21.2577 272.768 21.9096 272.903 23.65L278.885 23.1833ZM276.194 16.6704C274.413 14.9691 271.987 14.4038 269.522 14.4038V20.4038C271.186 20.4038 271.826 20.7959 272.05 21.0091L276.194 16.6704ZM269.522 14.4038C266.456 14.4038 263.778 15.5698 262.01 18.1157L266.938 21.5381C267.414 20.8533 268.101 20.4038 269.522 20.4038V14.4038ZM262.007 18.1205C260.389 20.4606 259.801 23.6821 259.769 27.2715L265.769 27.3246C265.797 24.1534 266.346 22.3941 266.942 21.5334L262.007 18.1205ZM259.769 27.2981V29.766H265.769V27.2981H259.769ZM259.769 29.766C259.769 33.4686 260.302 36.7702 261.848 39.1438L266.876 35.869C266.298 34.9819 265.769 33.1233 265.769 29.766H259.769ZM261.859 39.1599C263.597 41.7913 266.33 42.9519 269.433 42.9519V36.9519C267.928 36.9519 267.281 36.4822 266.865 35.8529L261.859 39.1599ZM269.433 42.9519C271.899 42.9519 274.322 42.4006 276.116 40.7391L272.038 36.3378C271.797 36.5609 271.125 36.9519 269.433 36.9519V42.9519ZM276.117 40.738C277.898 39.0856 278.658 36.7729 278.841 34.3435L272.858 33.8937C272.741 35.4429 272.319 36.0768 272.037 36.3389L276.117 40.738ZM275.849 37.1186H282.58V31.1186H275.849V37.1186ZM268.953 44.3064L268.706 45.6077L274.601 46.7257L274.848 45.4244L268.953 44.3064ZM271.122 49.1192C271.456 49.1792 271.66 49.2571 271.775 49.3149C271.882 49.369 271.911 49.4052 271.911 49.4052C271.914 49.4078 271.917 49.4123 271.923 49.4224C271.929 49.4328 271.94 49.4562 271.954 49.4981C271.981 49.5837 272.019 49.7556 272.019 50.0481H278.019C278.019 48.4384 277.597 46.8037 276.445 45.4746C275.306 44.1611 273.757 43.4971 272.185 43.2141L271.122 49.1192ZM272.019 50.0481C272.019 50.6894 271.83 51.0801 271.242 51.4892L274.668 56.4146C276.832 54.9092 278.019 52.6973 278.019 50.0481H272.019ZM271.229 51.498C270.566 51.9642 269.342 52.3878 267.189 52.3878V58.3878C270.002 58.3878 272.622 57.8541 274.681 56.4058L271.229 51.498ZM270.186 55.2622L270.029 51.5154L264.035 51.7667L264.192 55.5135L270.186 55.2622ZM267.032 54.641C268.142 54.641 269.515 54.4565 270.675 53.6176C272.015 52.6484 272.545 51.2033 272.545 49.8237H266.545C266.545 49.7828 266.552 49.6037 266.663 49.363C266.782 49.106 266.965 48.8961 267.159 48.7558C267.334 48.6287 267.454 48.6047 267.428 48.611C267.401 48.6177 267.28 48.641 267.032 48.641V54.641ZM272.545 49.8237C272.545 49.1079 272.399 48.2887 271.942 47.5101C271.474 46.7105 270.794 46.1538 270.059 45.808L267.505 51.2369C267.278 51.1304 266.981 50.9102 266.766 50.5444C266.564 50.1995 266.545 49.9113 266.545 49.8237H272.545ZM270.023 45.7913C269.007 45.3295 267.738 45.159 266.559 45.0804L266.159 51.0671C266.643 51.0993 267.004 51.1444 267.26 51.1918C267.533 51.2425 267.598 51.2797 267.541 51.2535L270.023 45.7913ZM269.291 48.7093L269.986 45.501L264.123 44.2298L263.427 47.4381L269.291 48.7093ZM267.054 47.8654H271.901V41.8654H267.054V47.8654ZM305.442 38.2692L308.285 37.312L307.598 35.2692H305.442V38.2692ZM293.641 38.2692V35.2692H291.479L290.795 37.3205L293.641 38.2692ZM291.397 45V48H293.56L294.243 45.9487L291.397 45ZM284.24 45L281.429 43.9534L279.922 48H284.24V45ZM296.401 12.3333V9.33334H294.316L293.589 11.2867L296.401 12.3333ZM302.638 12.3333L305.447 11.2817L304.718 9.33334H302.638V12.3333ZM314.865 45V48H319.192L317.675 43.9483L314.865 45ZM307.708 45L304.865 45.9572L305.553 48H307.708V45ZM295.458 32.8173L292.611 31.8718L291.301 35.8173H295.458V32.8173ZM303.625 32.8173V35.8173H307.797L306.469 31.8624L303.625 32.8173ZM299.519 20.5897L302.363 19.6348L299.504 11.1185L296.672 19.6442L299.519 20.5897ZM308.045 3.89744H311.045V1.08854L308.242 0.903925L308.045 3.89744ZM306.564 8.16026L308.829 10.1273L308.836 10.12L308.842 10.1126L306.564 8.16026ZM301.426 9.6859L300.537 12.5511L300.595 12.569L300.653 12.5846L301.426 9.6859ZM297.926 8.09295L297.053 10.963L297.111 10.9806L297.169 10.9958L297.926 8.09295ZM295.458 8.4968L293.337 6.37548L293.315 6.39712L293.294 6.4192L295.458 8.4968ZM294.92 10.0897L294.742 13.0844L297.92 13.2736V10.0897H294.92ZM291.151 9.86539H288.151V12.6921L290.972 12.8601L291.151 9.86539ZM292.609 5.625L290.319 3.68718L290.312 3.69579L290.304 3.70445L292.609 5.625ZM297.478 4.05449L296.595 6.92183L296.66 6.9416L296.725 6.95848L297.478 4.05449ZM303.715 5.24359L305.792 7.40775L305.794 7.40609L303.715 5.24359ZM304.298 3.65064L304.495 0.65713L301.298 0.446538V3.65064H304.298ZM305.442 35.2692H293.641V41.2692H305.442V35.2692ZM290.795 37.3205L288.551 44.0513L294.243 45.9487L296.487 39.2179L290.795 37.3205ZM291.397 42H284.24V48H291.397V42ZM287.052 46.0466L299.212 13.3799L293.589 11.2867L281.429 43.9534L287.052 46.0466ZM296.401 15.3333H302.638V9.33334H296.401V15.3333ZM299.828 13.385L312.056 46.0517L317.675 43.9483L305.447 11.2817L299.828 13.385ZM314.865 42H307.708V48H314.865V42ZM310.552 44.0428L308.285 37.312L302.599 39.2264L304.865 45.9572L310.552 44.0428ZM295.458 35.8173H303.625V29.8173H295.458V35.8173ZM306.469 31.8624L302.363 19.6348L296.675 21.5447L300.781 33.7723L306.469 31.8624ZM296.672 19.6442L292.611 31.8718L298.305 33.7629L302.366 21.5353L296.672 19.6442ZM305.045 3.89744C305.045 4.959 304.753 5.66287 304.286 6.20788L308.842 10.1126C310.349 8.35423 311.045 6.21621 311.045 3.89744H305.045ZM304.299 6.1932C303.843 6.71823 303.447 6.86539 302.952 6.86539V12.8654C305.299 12.8654 307.311 11.8758 308.829 10.1273L304.299 6.1932ZM302.952 6.86539C302.589 6.86539 302.347 6.82659 302.199 6.78719L300.653 12.5846C301.403 12.7845 302.178 12.8654 302.952 12.8654V6.86539ZM302.315 6.82071C302.166 6.7744 301.766 6.61023 301.031 6.21436L298.187 11.4972C299.007 11.9389 299.819 12.3282 300.537 12.5511L302.315 6.82071ZM301.031 6.21436C300.263 5.80046 299.415 5.38104 298.684 5.1901L297.169 10.9958C297.099 10.9775 297.146 10.9836 297.366 11.0833C297.564 11.1731 297.835 11.3076 298.187 11.4972L301.031 6.21436ZM298.8 5.22293C298.14 5.02219 297.468 4.9359 296.804 4.9359V10.9359C296.948 10.9359 297.024 10.9543 297.053 10.963L298.8 5.22293ZM296.804 4.9359C295.476 4.9359 294.267 5.44536 293.337 6.37548L297.58 10.6181C297.514 10.6837 297.397 10.7753 297.229 10.8454C297.061 10.9156 296.908 10.9359 296.804 10.9359V4.9359ZM293.294 6.4192C292.242 7.51519 291.92 8.88796 291.92 10.0897H297.92C297.92 10.0009 297.932 10.031 297.896 10.1362C297.857 10.2538 297.772 10.4181 297.622 10.5744L293.294 6.4192ZM295.098 7.09505L291.329 6.87069L290.972 12.8601L294.742 13.0844L295.098 7.09505ZM294.151 9.86539C294.151 8.83682 294.434 8.12155 294.914 7.54556L290.304 3.70445C288.84 5.46178 288.151 7.57344 288.151 9.86539H294.151ZM294.899 7.56283C295.365 7.01197 295.756 6.875 296.221 6.875V0.875003C293.845 0.875003 291.827 1.9047 290.319 3.68718L294.899 7.56283ZM296.221 6.875C296.401 6.875 296.52 6.89865 296.595 6.92183L298.36 1.18715C297.657 0.971015 296.938 0.875003 296.221 0.875003V6.875ZM296.725 6.95848C296.718 6.95688 296.749 6.96462 296.824 6.99135C296.897 7.01713 296.995 7.05462 297.121 7.10699C297.376 7.2125 297.708 7.36212 298.124 7.56323L300.735 2.16114C299.836 1.72687 298.95 1.33695 298.23 1.1505L296.725 6.95848ZM298.124 7.56323C298.99 7.98168 299.864 8.3754 300.534 8.55029L302.049 2.74459C302.089 2.75511 302.007 2.73455 301.734 2.61954C301.487 2.51549 301.157 2.3652 300.735 2.16114L298.124 7.56323ZM300.534 8.55029C301.138 8.70779 301.752 8.78205 302.369 8.78205V2.78205C302.237 2.78205 302.133 2.76658 302.049 2.74459L300.534 8.55029ZM302.369 8.78205C303.658 8.78205 304.854 8.30899 305.792 7.40775L301.637 3.07943C301.708 3.01139 301.824 2.92563 301.984 2.86201C302.142 2.7986 302.281 2.78205 302.369 2.78205V8.78205ZM305.794 7.40609C306.923 6.3209 307.298 4.91754 307.298 3.65064H301.298C301.298 3.7166 301.288 3.6612 301.335 3.53331C301.387 3.39184 301.485 3.2254 301.635 3.08109L305.794 7.40609ZM304.101 6.64416L307.848 6.89095L308.242 0.903925L304.495 0.65713L304.101 6.64416ZM337.66 43.4744L336.08 40.9243L336.072 40.9294L337.66 43.4744ZM318.208 37.9327L315.505 39.2341L315.508 39.2407L318.208 37.9327ZM316.436 29.5865H313.436V29.5937L313.436 29.6008L316.436 29.5865ZM318.163 19.4904L315.454 18.2019L315.451 18.209L318.163 19.4904ZM323.077 13.859L324.652 16.4121L324.657 16.409L323.077 13.859ZM337.593 13.859L336.005 16.404L336.015 16.4106L336.026 16.417L337.593 13.859ZM342.506 19.4904L339.791 20.7654L339.796 20.7754L339.8 20.7853L342.506 19.4904ZM325.119 20.0962L327.575 21.818L327.582 21.8081L325.119 20.0962ZM323.256 27.8141L320.256 27.8009V27.8141H323.256ZM335.596 37.2821L338.07 38.9799L338.076 38.9701L335.596 37.2821ZM337.436 29.5192L340.436 29.5324V29.5192H337.436ZM341.256 29.4071C341.256 32.2699 340.751 34.6391 339.835 36.5912L345.267 39.1395C346.625 36.2455 347.256 32.9759 347.256 29.4071H341.256ZM339.835 36.5912C338.927 38.5271 337.674 39.9364 336.08 40.9243L339.241 46.0244C341.894 44.3799 343.902 42.0498 345.267 39.1395L339.835 36.5912ZM336.072 40.9294C334.487 41.9186 332.625 42.4487 330.391 42.4487V48.4487C333.631 48.4487 336.616 47.6626 339.249 46.0194L336.072 40.9294ZM330.391 42.4487C328.187 42.4487 326.323 41.9261 324.711 40.9387L321.577 46.0549C324.213 47.6701 327.18 48.4487 330.391 48.4487V42.4487ZM324.711 40.9387C323.113 39.9597 321.844 38.5564 320.908 36.6247L315.508 39.2407C316.906 42.1252 318.927 44.4314 321.577 46.0549L324.711 40.9387ZM320.911 36.6312C319.968 34.6719 319.449 32.342 319.436 29.5723L313.436 29.6008C313.453 33.1132 314.115 36.3473 315.505 39.2341L320.911 36.6312ZM319.436 29.5865V27.9712H313.436V29.5865H319.436ZM319.436 27.9712C319.436 25.1141 319.947 22.7393 320.876 20.7718L315.451 18.209C314.077 21.1175 313.436 24.3965 313.436 27.9712H319.436ZM320.873 20.7789C321.816 18.7957 323.082 17.3809 324.652 16.4121L321.502 11.3059C318.854 12.9396 316.844 15.2791 315.454 18.2019L320.873 20.7789ZM324.657 16.409C326.264 15.413 328.131 14.8846 330.346 14.8846V8.88462C327.117 8.88462 324.137 9.67244 321.497 11.3089L324.657 16.409ZM330.346 14.8846C332.562 14.8846 334.417 15.4131 336.005 16.404L339.181 11.314C336.551 9.67241 333.575 8.88462 330.346 8.88462V14.8846ZM336.026 16.417C337.606 17.3851 338.865 18.7944 339.791 20.7654L345.222 18.2154C343.844 15.2804 341.828 12.9354 339.16 11.3009L336.026 16.417ZM339.8 20.7853C340.741 22.7513 341.256 25.1142 341.256 27.9487H347.256C347.256 24.3815 346.605 21.1056 345.213 18.1954L339.8 20.7853ZM341.256 27.9487V29.4071H347.256V27.9487H341.256ZM340.436 27.9263C340.436 24.2204 339.786 20.9117 338.066 18.4164L333.126 21.8208C333.859 22.8853 334.436 24.7817 334.436 27.9263H340.436ZM338.066 18.4164C336.247 15.7752 333.546 14.4487 330.346 14.4487V20.4487C331.694 20.4487 332.493 20.9021 333.126 21.8208L338.066 18.4164ZM330.346 14.4487C327.164 14.4487 324.475 15.7649 322.655 18.3842L327.582 21.8081C328.215 20.8975 329.011 20.4487 330.346 20.4487V14.4487ZM322.662 18.3744C320.933 20.8413 320.273 24.1256 320.256 27.8009L326.256 27.8273C326.27 24.712 326.851 22.851 327.575 21.818L322.662 18.3744ZM320.256 27.8141V29.4071H326.256V27.8141H320.256ZM320.256 29.4071C320.256 33.0528 320.917 36.31 322.6 38.834L327.592 35.5058C326.822 34.3503 326.256 32.4322 326.256 29.4071H320.256ZM322.6 38.834C324.41 41.5492 327.135 42.9295 330.391 42.9295V36.9295C329.04 36.9295 328.235 36.47 327.592 35.5058L322.6 38.834ZM330.391 42.9295C333.574 42.9295 336.263 41.6117 338.069 38.9799L333.123 35.5842C332.506 36.4823 331.725 36.9295 330.391 36.9295V42.9295ZM338.076 38.9701C339.767 36.4865 340.42 33.2079 340.436 29.5324L334.436 29.506C334.422 32.6212 333.849 34.5177 333.116 35.594L338.076 38.9701ZM340.436 29.5192V27.9263H334.436V29.5192H340.436ZM92.5705 92.2692L95.4137 91.312L94.726 89.2692H92.5705V92.2692ZM80.7692 92.2692V89.2692H78.607L77.9232 91.3205L80.7692 92.2692ZM78.5257 99V102H80.6879L81.3717 99.9487L78.5257 99ZM71.3686 99L68.5571 97.9534L67.0507 102H71.3686V99ZM83.5289 66.3333V63.3333H81.4445L80.7173 65.2867L83.5289 66.3333ZM89.766 66.3333L92.5757 65.2817L91.8464 63.3333H89.766V66.3333ZM101.994 99V102H106.32L104.803 97.9483L101.994 99ZM94.8365 99L91.9933 99.9572L92.6811 102H94.8365V99ZM82.5865 86.8173L79.7395 85.8718L78.4291 89.8173H82.5865V86.8173ZM90.7532 86.8173V89.8173H94.9252L93.5972 85.8624L90.7532 86.8173ZM86.6474 74.5897L89.4914 73.6348L86.6318 65.1185L83.8004 73.6442L86.6474 74.5897ZM92.5705 89.2692H80.7692V95.2692H92.5705V89.2692ZM77.9232 91.3205L75.6796 98.0513L81.3717 99.9487L83.6153 93.2179L77.9232 91.3205ZM78.5257 96H71.3686V102H78.5257V96ZM74.1801 100.047L86.3404 67.3799L80.7173 65.2867L68.5571 97.9534L74.1801 100.047ZM83.5289 69.3333H89.766V63.3333H83.5289V69.3333ZM86.9564 67.385L99.184 100.052L104.803 97.9483L92.5757 65.2817L86.9564 67.385ZM101.994 96H94.8365V102H101.994V96ZM97.6797 98.0428L95.4137 91.312L89.7273 93.2264L91.9933 99.9572L97.6797 98.0428ZM82.5865 89.8173H90.7532V83.8173H82.5865V89.8173ZM93.5972 85.8624L89.4914 73.6348L83.8035 75.5447L87.9093 87.7723L93.5972 85.8624ZM83.8004 73.6442L79.7395 85.8718L85.4336 87.7629L89.4945 75.5353L83.8004 73.6442ZM131.609 99V102H134.609V99H131.609ZM124.878 99L122.317 100.562L123.194 102H124.878V99ZM111.776 77.5064L114.337 75.9449L108.776 66.8216V77.5064H111.776ZM111.776 99V102H114.776V99H111.776ZM105.045 99H102.045V102H105.045V99ZM105.045 66.3333V63.3333H102.045V66.3333H105.045ZM111.776 66.3333L114.337 64.7722L113.461 63.3333H111.776V66.3333ZM124.901 87.8718L122.339 89.4329L127.901 98.56V87.8718H124.901ZM124.901 66.3333V63.3333H121.901V66.3333H124.901ZM131.609 66.3333H134.609V63.3333H131.609V66.3333ZM131.609 96H124.878V102H131.609V96ZM127.44 97.4385L114.337 75.9449L109.214 79.0679L122.317 100.562L127.44 97.4385ZM108.776 77.5064V99H114.776V77.5064H108.776ZM111.776 96H105.045V102H111.776V96ZM108.045 99V66.3333H102.045V99H108.045ZM105.045 69.3333H111.776V63.3333H105.045V69.3333ZM109.214 67.8944L122.339 89.4329L127.462 86.3107L114.337 64.7722L109.214 67.8944ZM127.901 87.8718V66.3333H121.901V87.8718H127.901ZM124.901 69.3333H131.609V63.3333H124.901V69.3333ZM128.609 66.3333V99H134.609V66.3333H128.609ZM144.644 99V102H147.644V99H144.644ZM137.913 99H134.913V102H137.913V99ZM137.913 66.3333V63.3333H134.913V66.3333H137.913ZM144.644 66.3333H147.644V63.3333H144.644V66.3333ZM144.644 96H137.913V102H144.644V96ZM140.913 99V66.3333H134.913V99H140.913ZM137.913 69.3333H144.644V63.3333H137.913V69.3333ZM141.644 66.3333V99H147.644V66.3333H141.644ZM159.699 66.3333L162.527 65.3318L161.819 63.3333H159.699V66.3333ZM168.09 90.0256L165.262 91.0272L168.097 99.0332L170.919 91.0224L168.09 90.0256ZM176.436 66.3333V63.3333H174.312L173.606 65.3366L176.436 66.3333ZM185.276 66.3333H188.276V63.3333H185.276V66.3333ZM185.276 99V102H188.276V99H185.276ZM178.522 99H175.522V102H178.522V99ZM178.522 90.0705L175.525 89.9396L175.522 90.005V90.0705H178.522ZM179.196 74.6571L182.193 74.7879L176.375 73.6354L179.196 74.6571ZM170.378 99V102H172.482L173.199 100.022L170.378 99ZM165.756 99L162.935 100.02L163.651 102H165.756V99ZM156.962 74.6795L159.783 73.6593L153.964 74.8106L156.962 74.6795ZM157.635 90.0705H160.635V90.0049L160.632 89.9394L157.635 90.0705ZM157.635 99V102H160.635V99H157.635ZM150.904 99H147.904V102H150.904V99ZM150.904 66.3333V63.3333H147.904V66.3333H150.904ZM156.871 67.3349L165.262 91.0272L170.918 89.0241L162.527 65.3318L156.871 67.3349ZM170.919 91.0224L179.265 67.3301L173.606 65.3366L165.26 89.0289L170.919 91.0224ZM176.436 69.3333H185.276V63.3333H176.436V69.3333ZM182.276 66.3333V99H188.276V66.3333H182.276ZM185.276 96H178.522V102H185.276V96ZM181.522 99V90.0705H175.522V99H181.522ZM181.52 90.2014L182.193 74.7879L176.198 74.5262L175.525 89.9396L181.52 90.2014ZM176.375 73.6354L167.558 97.9783L173.199 100.022L182.016 75.6787L176.375 73.6354ZM170.378 96H165.756V102H170.378V96ZM168.578 97.9798L159.783 73.6593L154.14 75.6997L162.935 100.02L168.578 97.9798ZM153.964 74.8106L154.637 90.2016L160.632 89.9394L159.959 74.5484L153.964 74.8106ZM154.635 90.0705V99H160.635V90.0705H154.635ZM157.635 96H150.904V102H157.635V96ZM153.904 99V66.3333H147.904V99H153.904ZM150.904 69.3333H159.699V63.3333H150.904V69.3333ZM210 92.2692L212.843 91.312L212.155 89.2692H210V92.2692ZM198.199 92.2692V89.2692H196.036L195.353 91.3205L198.199 92.2692ZM195.955 99V102H198.117L198.801 99.9487L195.955 99ZM188.798 99L185.987 97.9534L184.48 102H188.798V99ZM200.958 66.3333V63.3333H198.874L198.147 65.2867L200.958 66.3333ZM207.196 66.3333L210.005 65.2817L209.276 63.3333H207.196V66.3333ZM219.423 99V102H223.749L222.233 97.9483L219.423 99ZM212.266 99L209.423 99.9572L210.111 102H212.266V99ZM200.016 86.8173L197.169 85.8718L195.859 89.8173H200.016V86.8173ZM208.183 86.8173V89.8173H212.355L211.027 85.8624L208.183 86.8173ZM204.077 74.5897L206.921 73.6348L204.061 65.1185L201.23 73.6442L204.077 74.5897ZM210 89.2692H198.199V95.2692H210V89.2692ZM195.353 91.3205L193.109 98.0513L198.801 99.9487L201.045 93.2179L195.353 91.3205ZM195.955 96H188.798V102H195.955V96ZM191.61 100.047L203.77 67.3799L198.147 65.2867L185.987 97.9534L191.61 100.047ZM200.958 69.3333H207.196V63.3333H200.958V69.3333ZM204.386 67.385L216.613 100.052L222.233 97.9483L210.005 65.2817L204.386 67.385ZM219.423 96H212.266V102H219.423V96ZM215.109 98.0428L212.843 91.312L207.157 93.2264L209.423 99.9572L215.109 98.0428ZM200.016 89.8173H208.183V83.8173H200.016V89.8173ZM211.027 85.8624L206.921 73.6348L201.233 75.5447L205.339 87.7723L211.027 85.8624ZM201.23 73.6442L197.169 85.8718L202.863 87.7629L206.924 75.5353L201.23 73.6442ZM222.474 99H219.474V102H222.474V99ZM222.474 66.3333V63.3333H219.474V66.3333H222.474ZM240.221 68.2853L238.723 70.8847L238.734 70.8905L238.744 70.8963L240.221 68.2853ZM245.538 73.8045L242.889 75.212L242.893 75.2188L245.538 73.8045ZM245.561 91.5288L242.912 90.1206L242.908 90.1271L242.905 90.1337L245.561 91.5288ZM232.593 99V102H232.601L232.609 102L232.593 99ZM229.205 71.7853V68.7853H226.205V71.7853H229.205ZM229.205 93.5929H226.205V96.5929H229.205V93.5929ZM240.625 83.6314L243.625 83.6594L243.625 83.6454V83.6314H240.625ZM238.561 74.3654L236.218 76.2395L236.226 76.2494L238.561 74.3654ZM225.474 99V66.3333H219.474V99H225.474ZM222.474 69.3333H232.526V63.3333H222.474V69.3333ZM232.526 69.3333C234.927 69.3333 236.966 69.8719 238.723 70.8847L241.719 65.6858C238.959 64.096 235.868 63.3333 232.526 63.3333V69.3333ZM238.744 70.8963C240.501 71.8904 241.875 73.3035 242.889 75.212L248.188 72.397C246.659 69.5191 244.489 67.2528 241.698 65.6742L238.744 70.8963ZM242.893 75.2188C243.904 77.1095 244.445 79.3204 244.445 81.9263H250.445C250.445 78.4595 249.716 75.2558 248.184 72.3901L242.893 75.2188ZM244.445 81.9263V83.4295H250.445V81.9263H244.445ZM244.445 83.4295C244.445 86.0415 243.908 88.2463 242.912 90.1206L248.21 92.9371C249.726 90.0849 250.445 86.8901 250.445 83.4295H244.445ZM242.905 90.1337C241.924 92.0016 240.566 93.41 238.798 94.422L241.779 99.6293C244.558 98.0387 246.715 95.7826 248.217 92.924L242.905 90.1337ZM238.798 94.422C237.014 95.4433 234.965 95.9875 232.577 96L232.609 102C235.935 101.983 239.016 101.211 241.779 99.6293L238.798 94.422ZM232.593 96H222.474V102H232.593V96ZM226.205 71.7853V93.5929H232.205V71.7853H226.205ZM229.205 96.5929H232.458V90.5929H229.205V96.5929ZM232.458 96.5929C235.805 96.5929 238.755 95.4601 240.826 92.8992L236.161 89.1264C235.45 90.0057 234.376 90.5929 232.458 90.5929V96.5929ZM240.826 92.8992C242.797 90.4626 243.591 87.2436 243.625 83.6594L237.625 83.6034C237.599 86.4209 236.972 88.1229 236.161 89.1264L240.826 92.8992ZM243.625 83.6314V81.9038H237.625V83.6314H243.625ZM243.625 81.9038C243.625 78.2353 242.875 74.9339 240.895 72.4813L236.226 76.2494C236.999 77.2071 237.625 78.9314 237.625 81.9038H243.625ZM240.904 72.4913C238.842 69.914 235.88 68.7853 232.526 68.7853V74.7853C234.466 74.7853 235.528 75.3766 236.218 76.2395L240.904 72.4913ZM232.526 68.7853H229.205V74.7853H232.526V68.7853ZM270.308 92.2692L273.151 91.312L272.463 89.2692H270.308V92.2692ZM258.506 92.2692V89.2692H256.344L255.66 91.3205L258.506 92.2692ZM256.263 99V102H258.425L259.109 99.9487L256.263 99ZM249.106 99L246.294 97.9534L244.788 102H249.106V99ZM261.266 66.3333V63.3333H259.182L258.455 65.2867L261.266 66.3333ZM267.503 66.3333L270.313 65.2817L269.584 63.3333H267.503V66.3333ZM279.731 99V102H284.057L282.54 97.9483L279.731 99ZM272.574 99L269.731 99.9572L270.418 102H272.574V99ZM260.324 86.8173L257.477 85.8718L256.166 89.8173H260.324V86.8173ZM268.49 86.8173V89.8173H272.662L271.334 85.8624L268.49 86.8173ZM264.385 74.5897L267.229 73.6348L264.369 65.1185L261.538 73.6442L264.385 74.5897ZM270.308 89.2692H258.506V95.2692H270.308V89.2692ZM255.66 91.3205L253.417 98.0513L259.109 99.9487L261.352 93.2179L255.66 91.3205ZM256.263 96H249.106V102H256.263V96ZM251.917 100.047L264.078 67.3799L258.455 65.2867L246.294 97.9534L251.917 100.047ZM261.266 69.3333H267.503V63.3333H261.266V69.3333ZM264.694 67.385L276.921 100.052L282.54 97.9483L270.313 65.2817L264.694 67.385ZM279.731 96H272.574V102H279.731V96ZM275.417 98.0428L273.151 91.312L267.465 93.2264L269.731 99.9572L275.417 98.0428ZM260.324 89.8173H268.49V83.8173H260.324V89.8173ZM271.334 85.8624L267.229 73.6348L261.541 75.5447L265.646 87.7723L271.334 85.8624ZM261.538 73.6442L257.477 85.8718L263.171 87.7629L267.232 75.5353L261.538 73.6442Z" fill="white"/>
</svg>
